<svg xmlns="http://www.w3.org/2000/svg" xmlns:xlink="http://www.w3.org/1999/xlink" width="1080" zoomAndPan="magnify" viewBox="0 0 810 809.999993" height="1080" preserveAspectRatio="xMidYMid meet" version="1.0"><defs><g/><clipPath id="5fe0974ff1"><path d="M 592.921875 152.640625 L 647.671875 152.640625 L 647.671875 207.390625 L 592.921875 207.390625 Z M 592.921875 152.640625 " clip-rule="nonzero"/></clipPath></defs><path stroke-linecap="butt" transform="matrix(9.727327, 0.000000000000001524, -0.000000000000001527, 9.75, 80.999999, 76.125016)" fill="none" stroke-linejoin="miter" d="M 0.0000000591118 -0.00000165849 L 13.956734 -0.00000165849 " stroke="#ffffff" stroke-width="1" stroke-opacity="1" stroke-miterlimit="4"/><path stroke-linecap="butt" transform="matrix(-0.000000000000001564, 9.727327, -9.75, -0.000000000000001568, 85.870091, 71.254924)" fill="none" stroke-linejoin="miter" d="M -0.000104671 -0.000102828 L 13.956629 -0.000102828 " stroke="#ffffff" stroke-width="1" stroke-opacity="1" stroke-miterlimit="4"/><path stroke-linecap="butt" transform="matrix(-0.000000000000001564, 9.727327, -9.75, -0.000000000000001568, 724.120047, 71.254924)" fill="none" stroke-linejoin="miter" d="M -0.000104671 -0.000107352 L 13.956629 -0.000107352 " stroke="#ffffff" stroke-width="1" stroke-opacity="1" stroke-miterlimit="4"/><path stroke-linecap="butt" transform="matrix(-9.727327, -0.000000000000001191, 0.000000000000001194, -9.75, 728.990175, 76.125016)" fill="none" stroke-linejoin="miter" d="M 0.000194666 0.00000165849 L 13.956527 0.00000165849 " stroke="#ffffff" stroke-width="1" stroke-opacity="1" stroke-miterlimit="4"/><path stroke-linecap="butt" transform="matrix(-9.727327, -0.000000000000001191, 0.000000000000001194, -9.75, 728.990175, 724.124984)" fill="none" stroke-linejoin="miter" d="M 0.000194666 -0.0000016851 L 13.956527 -0.0000016851 " stroke="#ffffff" stroke-width="1" stroke-opacity="1" stroke-miterlimit="4"/><path stroke-linecap="butt" transform="matrix(0.000000000000000596, -9.727327, 9.75, 0.000000000000000597, 724.120047, 728.995063)" fill="none" stroke-linejoin="miter" d="M -0.000105931 0.000107352 L 13.956628 0.000107352 " stroke="#ffffff" stroke-width="1" stroke-opacity="1" stroke-miterlimit="4"/><path stroke-linecap="butt" transform="matrix(0.000000000000000596, -9.727327, 9.75, 0.000000000000000597, 85.870091, 728.995063)" fill="none" stroke-linejoin="miter" d="M -0.000105931 0.000102828 L 13.956628 0.000102828 " stroke="#ffffff" stroke-width="1" stroke-opacity="1" stroke-miterlimit="4"/><path stroke-linecap="butt" transform="matrix(9.727327, 0, 0, 9.75, 80.999999, 724.124984)" fill="none" stroke-linejoin="miter" d="M 0.0000000591118 0.0000016851 L 13.956734 0.0000016851 " stroke="#ffffff" stroke-width="1" stroke-opacity="1" stroke-miterlimit="4"/><g clip-path="url(#5fe0974ff1)"><path fill="#d00a0a" d="M 620.296875 152.640625 C 605.179688 152.640625 592.921875 164.894531 592.921875 180.015625 C 592.921875 195.132812 605.179688 207.390625 620.296875 207.390625 C 635.417969 207.390625 647.671875 195.132812 647.671875 180.015625 C 647.671875 164.894531 635.417969 152.640625 620.296875 152.640625 " fill-opacity="1" fill-rule="nonzero"/></g><g fill="#ffffff" fill-opacity="1"><g transform="translate(126.068186, 556.240384)"><g><path d="M 12.765625 -47.34375 L 12.765625 -29.640625 L 32.078125 -29.640625 L 32.078125 -23.9375 L 12.765625 -23.9375 L 12.765625 -5.703125 L 34.359375 -5.703125 L 34.359375 0 L 5.859375 0 L 5.859375 -53.046875 L 34.359375 -53.046875 L 34.359375 -47.34375 Z M 12.765625 -47.34375 "/></g></g></g><g fill="#ffffff" fill-opacity="1"><g transform="translate(165.054188, 556.240384)"><g><path d="M 55.9375 -42.40625 C 59.175781 -42.40625 62.0625 -41.734375 64.59375 -40.390625 C 67.132812 -39.046875 69.140625 -37.03125 70.609375 -34.34375 C 72.078125 -31.664062 72.8125 -28.398438 72.8125 -24.546875 L 72.8125 0 L 65.96875 0 L 65.96875 -23.5625 C 65.96875 -27.71875 64.941406 -30.894531 62.890625 -33.09375 C 60.835938 -35.300781 58.0625 -36.40625 54.5625 -36.40625 C 50.96875 -36.40625 48.101562 -35.25 45.96875 -32.9375 C 43.84375 -30.632812 42.78125 -27.304688 42.78125 -22.953125 L 42.78125 0 L 35.953125 0 L 35.953125 -23.5625 C 35.953125 -27.71875 34.925781 -30.894531 32.875 -33.09375 C 30.820312 -35.300781 28.046875 -36.40625 24.546875 -36.40625 C 20.953125 -36.40625 18.085938 -35.25 15.953125 -32.9375 C 13.828125 -30.632812 12.765625 -27.304688 12.765625 -22.953125 L 12.765625 0 L 5.859375 0 L 5.859375 -41.640625 L 12.765625 -41.640625 L 12.765625 -35.640625 C 14.128906 -37.816406 15.960938 -39.488281 18.265625 -40.65625 C 20.578125 -41.820312 23.128906 -42.40625 25.921875 -42.40625 C 29.410156 -42.40625 32.5 -41.617188 35.1875 -40.046875 C 37.875 -38.484375 39.875 -36.179688 41.1875 -33.140625 C 42.351562 -36.078125 44.28125 -38.351562 46.96875 -39.96875 C 49.65625 -41.59375 52.644531 -42.40625 55.9375 -42.40625 Z M 55.9375 -42.40625 "/></g></g></g><g fill="#ffffff" fill-opacity="1"><g transform="translate(126.068186, 661.990379)"><g><path d="M 32.375 -27.28125 C 34.300781 -26.976562 36.0625 -26.191406 37.65625 -24.921875 C 39.25 -23.660156 40.515625 -22.09375 41.453125 -20.21875 C 42.390625 -18.34375 42.859375 -16.34375 42.859375 -14.21875 C 42.859375 -11.53125 42.175781 -9.109375 40.8125 -6.953125 C 39.445312 -4.796875 37.457031 -3.097656 34.84375 -1.859375 C 32.238281 -0.617188 29.160156 0 25.609375 0 L 5.859375 0 L 5.859375 -52.96875 L 24.859375 -52.96875 C 28.453125 -52.96875 31.515625 -52.375 34.046875 -51.1875 C 36.578125 -50 38.472656 -48.390625 39.734375 -46.359375 C 41.003906 -44.328125 41.640625 -42.046875 41.640625 -39.515625 C 41.640625 -36.378906 40.789062 -33.785156 39.09375 -31.734375 C 37.40625 -29.679688 35.164062 -28.195312 32.375 -27.28125 Z M 12.765625 -30.09375 L 24.390625 -30.09375 C 27.640625 -30.09375 30.148438 -30.851562 31.921875 -32.375 C 33.691406 -33.894531 34.578125 -36 34.578125 -38.6875 C 34.578125 -41.375 33.691406 -43.472656 31.921875 -44.984375 C 30.148438 -46.503906 27.59375 -47.265625 24.25 -47.265625 L 12.765625 -47.265625 Z M 25 -5.703125 C 28.445312 -5.703125 31.132812 -6.507812 33.0625 -8.125 C 34.988281 -9.75 35.953125 -12.003906 35.953125 -14.890625 C 35.953125 -17.828125 34.9375 -20.144531 32.90625 -21.84375 C 30.882812 -23.539062 28.175781 -24.390625 24.78125 -24.390625 L 12.765625 -24.390625 L 12.765625 -5.703125 Z M 25 -5.703125 "/></g></g></g><g fill="#ffffff" fill-opacity="1"><g transform="translate(172.653797, 661.990379)"><g><path d="M 12.765625 -34.890625 C 13.984375 -37.265625 15.71875 -39.109375 17.96875 -40.421875 C 20.226562 -41.742188 22.976562 -42.40625 26.21875 -42.40625 L 26.21875 -35.265625 L 24.390625 -35.265625 C 16.640625 -35.265625 12.765625 -31.054688 12.765625 -22.640625 L 12.765625 0 L 5.859375 0 L 5.859375 -41.640625 L 12.765625 -41.640625 Z M 12.765625 -34.890625 "/></g></g></g><g fill="#ffffff" fill-opacity="1"><g transform="translate(201.000342, 661.990379)"><g><path d="M 43.859375 -22.421875 C 43.859375 -21.097656 43.78125 -19.703125 43.625 -18.234375 L 10.34375 -18.234375 C 10.59375 -14.128906 11.992188 -10.925781 14.546875 -8.625 C 17.109375 -6.320312 20.210938 -5.171875 23.859375 -5.171875 C 26.847656 -5.171875 29.34375 -5.863281 31.34375 -7.25 C 33.351562 -8.644531 34.757812 -10.507812 35.5625 -12.84375 L 43.015625 -12.84375 C 41.898438 -8.84375 39.671875 -5.585938 36.328125 -3.078125 C 32.984375 -0.566406 28.828125 0.6875 23.859375 0.6875 C 19.910156 0.6875 16.378906 -0.195312 13.265625 -1.96875 C 10.148438 -3.75 7.703125 -6.269531 5.921875 -9.53125 C 4.148438 -12.800781 3.265625 -16.59375 3.265625 -20.90625 C 3.265625 -25.207031 4.125 -28.976562 5.84375 -32.21875 C 7.570312 -35.46875 9.992188 -37.960938 13.109375 -39.703125 C 16.222656 -41.453125 19.804688 -42.328125 23.859375 -42.328125 C 27.816406 -42.328125 31.3125 -41.460938 34.34375 -39.734375 C 37.382812 -38.015625 39.726562 -35.648438 41.375 -32.640625 C 43.03125 -29.628906 43.859375 -26.222656 43.859375 -22.421875 Z M 36.703125 -23.859375 C 36.703125 -26.492188 36.117188 -28.757812 34.953125 -30.65625 C 33.796875 -32.5625 32.210938 -34.007812 30.203125 -35 C 28.203125 -35.988281 25.988281 -36.484375 23.5625 -36.484375 C 20.0625 -36.484375 17.082031 -35.367188 14.625 -33.140625 C 12.164062 -30.910156 10.757812 -27.816406 10.40625 -23.859375 Z M 36.703125 -23.859375 "/></g></g></g><g fill="#ffffff" fill-opacity="1"><g transform="translate(248.11792, 661.990379)"><g><path d="M 21.359375 -6.390625 L 34.28125 -41.640625 L 41.640625 -41.640625 L 25.3125 0 L 17.25 0 L 0.90625 -41.640625 L 8.359375 -41.640625 Z M 21.359375 -6.390625 "/></g></g></g><g fill="#ffffff" fill-opacity="1"><g transform="translate(290.751726, 661.990379)"><g><path d="M 43.859375 -22.421875 C 43.859375 -21.097656 43.78125 -19.703125 43.625 -18.234375 L 10.34375 -18.234375 C 10.59375 -14.128906 11.992188 -10.925781 14.546875 -8.625 C 17.109375 -6.320312 20.210938 -5.171875 23.859375 -5.171875 C 26.847656 -5.171875 29.34375 -5.863281 31.34375 -7.25 C 33.351562 -8.644531 34.757812 -10.507812 35.5625 -12.84375 L 43.015625 -12.84375 C 41.898438 -8.84375 39.671875 -5.585938 36.328125 -3.078125 C 32.984375 -0.566406 28.828125 0.6875 23.859375 0.6875 C 19.910156 0.6875 16.378906 -0.195312 13.265625 -1.96875 C 10.148438 -3.75 7.703125 -6.269531 5.921875 -9.53125 C 4.148438 -12.800781 3.265625 -16.59375 3.265625 -20.90625 C 3.265625 -25.207031 4.125 -28.976562 5.84375 -32.21875 C 7.570312 -35.46875 9.992188 -37.960938 13.109375 -39.703125 C 16.222656 -41.453125 19.804688 -42.328125 23.859375 -42.328125 C 27.816406 -42.328125 31.3125 -41.460938 34.34375 -39.734375 C 37.382812 -38.015625 39.726562 -35.648438 41.375 -32.640625 C 43.03125 -29.628906 43.859375 -26.222656 43.859375 -22.421875 Z M 36.703125 -23.859375 C 36.703125 -26.492188 36.117188 -28.757812 34.953125 -30.65625 C 33.796875 -32.5625 32.210938 -34.007812 30.203125 -35 C 28.203125 -35.988281 25.988281 -36.484375 23.5625 -36.484375 C 20.0625 -36.484375 17.082031 -35.367188 14.625 -33.140625 C 12.164062 -30.910156 10.757812 -27.816406 10.40625 -23.859375 Z M 36.703125 -23.859375 "/></g></g></g><g fill="#ffffff" fill-opacity="1"><g transform="translate(337.869293, 661.990379)"><g><path d="M 14.8125 -52.96875 L 13.984375 -14.96875 L 8.203125 -14.96875 L 7.375 -52.96875 Z M 11.40625 0.453125 C 10.082031 0.453125 8.960938 0 8.046875 -0.90625 C 7.140625 -1.820312 6.6875 -2.9375 6.6875 -4.25 C 6.6875 -5.570312 7.140625 -6.6875 8.046875 -7.59375 C 8.960938 -8.507812 10.082031 -8.96875 11.40625 -8.96875 C 12.664062 -8.96875 13.738281 -8.507812 14.625 -7.59375 C 15.507812 -6.6875 15.953125 -5.570312 15.953125 -4.25 C 15.953125 -2.9375 15.507812 -1.820312 14.625 -0.90625 C 13.738281 0 12.664062 0.453125 11.40625 0.453125 Z M 11.40625 0.453125 "/></g></g></g></svg>